<svg width="320" height="63" viewBox="0 0 320 63" fill="none" xmlns="http://www.w3.org/2000/svg">
<path d="M168.885 6.69419C142.008 6.69419 113.831 9.0436 87.0034 5.99501C66.6797 3.6855 48.5583 7.44921 29.7484 15.3174C22.5717 18.3194 8.61847 22.5857 3.72346 29.6894C-7.22415 45.5768 42.0783 53.5881 44.1204 53.9276C101.528 63.4715 162.457 61.0473 220.313 57.8119C247.473 56.2931 273.664 51.6907 300.175 46.0035C304.437 45.0893 314.877 44.2401 317.577 39.2448C323.151 28.9322 274.668 20.8415 274.305 20.7554C222.008 8.35672 167.815 1.07054 113.961 2.6545C100.502 3.05034 95.6559 5.75626 85.605 12.7537C78.9108 17.4143 72.3706 22.0927 65.4065 26.2712" stroke="#E12247" stroke-width="3" stroke-linecap="round"/>
</svg>
