<svg width="53" height="50" viewBox="0 0 53 50" fill="none" xmlns="http://www.w3.org/2000/svg">
<path d="M48.6906 5.12408C48.6906 5.12408 57.4164 13.5225 44.802 20.7724C44.802 20.7724 31.5048 26.0422 27.7731 32.8745C27.7731 32.8745 27.4575 26.504 34.1917 22.1297C40.9259 17.7553 50.0029 14.931 48.6906 5.12408Z" fill="#E12247"/>
<path d="M4.15425 5.43018C4.15425 5.43018 -4.56973 13.8339 8.03929 21.0785C8.03929 21.0785 21.3365 26.3483 25.0683 33.1806C25.0683 33.1806 25.3838 26.8101 18.6496 22.4357C11.9154 18.0614 2.84021 15.2371 4.15425 5.43018Z" fill="#E12247"/>
<path d="M29.4009 3.92428C29.4009 3.92428 39.9649 2.35998 41.541 7.99429C41.541 7.99429 42.855 11.4113 39.4924 15.8052C39.4924 15.8052 48.3733 11.2999 45.7987 3.72609C45.7987 3.72432 40.8581 -4.78731 29.4009 3.92428Z" fill="#E12247"/>
<path d="M24.3551 5.12403C24.3551 5.12403 17.5799 5.43724 17.7867 10.3407C17.7867 10.3407 19.4145 16.7112 32.1858 12.6872C32.1858 12.6872 25.0915 19.677 15.5794 12.7916C15.5794 12.7916 10.6389 7.26344 18.7887 4.81081C18.7852 4.80904 21.9463 4.39319 24.3551 5.12403Z" fill="#E12247"/>
<path d="M22.4634 3.29785C22.4634 3.29785 8.11239 0.89831 11.1612 11.1229C11.1612 11.1229 15.7969 19.7035 28.3507 17.7605C28.3507 17.7605 37.1798 15.2371 34.9725 10.2593C34.9725 10.2593 33.2377 6.74143 26.0899 8.31281C26.0899 8.31281 24.7366 8.4703 24.4603 8.93924C24.1839 9.40817 25.0522 9.87888 25.7618 9.6046C26.4714 9.33032 29.7039 8.81183 30.1764 10.5566C30.6489 12.3014 24.4995 11.951 24.4995 11.951C24.4995 11.951 17.8455 11.0026 22.6862 6.97679C22.6862 6.97679 25.7172 5.17713 31.2016 5.685C36.686 6.19286 37.6648 7.90227 37.6648 7.90227C37.6648 7.90227 41.45 12.6076 34.5518 18.0472C27.6535 23.4869 26.3502 26.7323 26.3502 26.7323C26.3502 26.7323 24.4193 20.8254 17.4354 18.5922C10.4516 16.359 2.89012 8.32874 8.48681 3.05011C14.0835 -2.22852 22.4634 3.29785 22.4634 3.29785Z" fill="#E12247"/>
<path d="M0 16.72C0 16.72 1.4959 34.3768 9.24638 38.3566C16.9969 42.3363 23.7649 46.4966 24.7919 49.1191C24.7919 49.1191 28.8767 39.9492 21.9285 32.2675C21.9285 32.2675 17.8848 29.1194 15.3655 27.9391C12.8462 26.7588 10.7298 24.0089 10.7298 24.0089C10.7298 24.0089 8.94685 22.7613 9.51561 25.5201C10.0844 28.2789 15.9342 32.9293 15.9342 32.9293C15.9342 32.9293 9.88646 33.4602 5.4273 25.375C4.56449 23.6252 3.86445 21.8009 3.3359 19.9247C3.13688 19.1347 2.7189 18.4157 2.12932 17.8493C1.53973 17.2829 0.802102 16.8917 0 16.72Z" fill="#231F20"/>
<path d="M53 16.72C53 16.72 51.5041 34.3768 43.7537 38.3566C36.0032 42.3363 29.2351 46.4966 28.2081 49.1191C28.2081 49.1191 24.1234 39.9492 31.0715 32.2675C31.0715 32.2675 35.1153 29.1194 37.6364 27.9391C40.1574 26.7588 42.272 24.0089 42.272 24.0089C42.272 24.0089 44.055 22.7613 43.4862 25.5201C42.9175 28.2789 37.0676 32.9293 37.0676 32.9293C37.0676 32.9293 43.1136 33.4602 47.5727 25.375C48.4364 23.6256 49.1365 21.8012 49.6641 19.9247C49.8632 19.1347 50.2811 18.4157 50.8707 17.8493C51.4603 17.2829 52.1979 16.8917 53 16.72Z" fill="#231F20"/>
</svg>
