<svg width="165" height="55" viewBox="0 0 165 55" fill="none" xmlns="http://www.w3.org/2000/svg">
<path d="M64.1585 49.5147C79.4213 49.5147 94.7921 49.9743 110.046 49.1963C123.637 48.5031 137.181 46.7066 150.657 44.876C153.421 44.5005 156.181 44.0979 158.934 43.6481C160.476 43.396 162.725 43.8534 162.822 41.8062C163.215 33.5597 140.707 26.5547 138.606 25.8208C106.137 14.4819 71.7157 8.30781 37.6905 4.03698C30.3492 3.11551 22.9863 2.10981 15.5883 1.99049C10.4237 1.90719 2.78868 1.695 1.9905 8.81214C1.63968 11.9403 2.85097 15.0619 3.62769 18.1123C5.85619 26.8642 7.20286 32.0172 15.4519 37.3494C27.0437 44.8424 44.4007 47.712 57.1777 49.6056C77.4374 52.6083 91.5171 53.3219 111.66 52.1069C123.482 51.3938 135.678 49.4739 146.519 44.4212C151.381 42.1547 157.109 39.0684 161.049 35.3256C166.771 29.89 158.474 18.8507 154.5 15.2927C147.699 9.20369 138.635 7.68693 129.874 6.35635C112.075 3.6533 93.675 2.14963 75.6644 2.55896C66.438 2.76865 57.4608 4.19316 48.4687 6.12896C46.9493 6.45606 44.1029 6.21191 44.1029 7.76616" stroke="#E12247" stroke-width="3" stroke-linecap="round"/>
</svg>
